<?xml version="1.0" encoding="UTF-8"?>
<!DOCTYPE svg PUBLIC "-//W3C//DTD SVG 1.1//EN" "http://www.w3.org/Graphics/SVG/1.1/DTD/svg11.dtd">
<!-- Creator: CorelDRAW (Evaluation Version) -->
<svg xmlns="http://www.w3.org/2000/svg" xml:space="preserve" width="0.686661in" height="0.233331in" version="1.1" style="shape-rendering:geometricPrecision; text-rendering:geometricPrecision; image-rendering:optimizeQuality; fill-rule:evenodd; clip-rule:evenodd"
viewBox="0 0 686.66 233.33"
 xmlns:xlink="http://www.w3.org/1999/xlink"
 xmlns:xodm="http://www.corel.com/coreldraw/odm/2003">
 <defs>
  <style type="text/css">
   <![CDATA[
    .fil0 {fill:white}
    .fil1 {fill:white;fill-rule:nonzero}
   ]]>
  </style>
 </defs>
 <g id="Layer_x0020_1">
  <metadata id="CorelCorpID_0Corel-Layer"/>
  <g id="_105553209657760">
   <g>
    <path class="fil0" d="M134.54 166.56c5.95,5.01 7.89,8.11 17.15,12.17 18.54,8.15 40.97,5.65 56.49,-7.29 3.65,-3.05 4.63,-4.36 7.54,-7.57l-10.43 -10.99c-3.3,-3.18 -7.56,-7.92 -10.99,-10.55 -1.53,1.22 -5.23,8.64 -15.47,11.07 -10.74,2.55 -21.26,-2.62 -26.47,-11.48 -5.24,-8.91 -2.49,-13.61 -4.19,-22.3 -3.28,-16.68 -13.73,-30.71 -28.32,-38.08 -6,-3.04 -13.06,-5.04 -20.55,-6.02 -5.75,-0.75 -18.42,0.93 -22.97,3.43l-0.13 34.8c13.92,-15.37 42.09,-6.8 42.2,16.05 0.06,11.4 -6.96,18.93 -14.84,22.33 -9.9,4.28 -20.11,1.22 -27.37,-6.35 -7.59,-7.92 -5.89,-18.64 -5.89,-31.11 0,-12.33 -0.08,-24.67 -0.06,-36.99 0.02,-16.89 -0,-30.08 -15.61,-39.8 -3.1,-1.93 -9.03,-4.96 -13.28,-5.13 -0.89,25.13 -0.04,55.31 -0.04,81.5 0,15.65 -2.35,26.15 6.54,41.79 12.95,22.81 40.61,33.85 67.25,23.58 8.57,-3.3 14.61,-8.44 19.45,-13.08z"/>
    <path class="fil0" d="M138.25 89.65c2.76,1.87 7,8.22 9.05,11.93 1.18,2.13 2.34,4.81 3.24,7.29 1.01,2.79 1.33,5.45 2.24,8.23 3.2,-3.71 3.67,-5.22 8.27,-7.93 12.55,-7.39 28.72,-1.49 33.61,9.74 0.95,-0.44 20.07,-19.36 22.14,-22.3 -10.19,-11.79 -18.44,-17.87 -36.29,-20.72 -11.52,-1.84 -24.44,1.46 -34.17,7.22 -2.28,1.35 -7.07,4.24 -8.08,6.54z"/>
   </g>
   <path class="fil1" d="M272.08 102.69c2.81,-2.44 4.52,-5.85 4.52,-10.14 0,-8.96 -7.33,-14.8 -16.36,-14.8l-20.28 0 0 51.81 21.76 0c9.25,0 16.73,-6 16.73,-15.17 0,-5.26 -2.52,-9.25 -6.37,-11.7zm-11.84 -13.84c2.74,0 4.52,1.93 4.52,4.59 0,2.67 -1.85,4.59 -4.52,4.59l-8.44 0 0 -9.18 8.44 0zm1.48 29.61l-9.92 0 0 -9.92 9.92 0c2.96,0 4.89,2.07 4.89,4.96 0,2.89 -1.93,4.96 -4.89,4.96zm33.38 -19.32l0 -6.59 -11.1 0 0 37.01 11.1 0 0 -16.73c0,-7.33 6.52,-9.18 11.1,-8.44l0 -12.58c-4.66,0 -9.62,2.37 -11.1,7.33zm32.94 31.46c10.88,0 19.61,-8.51 19.61,-19.54 0,-11.03 -8.74,-19.54 -19.61,-19.54 -10.88,0 -19.62,8.51 -19.62,19.54 0,11.03 8.74,19.54 19.62,19.54zm0 -10.81c-4.81,0 -8.52,-3.48 -8.52,-8.73 0,-5.26 3.7,-8.74 8.52,-8.74 4.81,0 8.51,3.48 8.51,8.74 0,5.26 -3.7,8.73 -8.51,8.73zm52.77 -27.24l0 3.48c-2.44,-2.81 -6.07,-4.51 -11.03,-4.51 -9.7,0 -17.69,8.51 -17.69,19.54 0,11.03 7.99,19.54 17.69,19.54 4.96,0 8.59,-1.7 11.03,-4.52l0 3.48 11.11 0 0 -37.01 -11.11 0zm-8.81 27.54c-5.11,0 -8.81,-3.48 -8.81,-9.03 0,-5.55 3.7,-9.03 8.81,-9.03 5.11,0 8.81,3.48 8.81,9.03 0,5.55 -3.7,9.03 -8.81,9.03zm54.92 -42.34l0 18.28c-2.44,-2.81 -6.07,-4.51 -11.03,-4.51 -9.7,0 -17.69,8.51 -17.69,19.54 0,11.03 7.99,19.54 17.69,19.54 4.96,0 8.59,-1.7 11.03,-4.52l0 3.48 11.1 0 0 -51.81 -11.1 0zm-8.81 42.34c-5.11,0 -8.81,-3.48 -8.81,-9.03 0,-5.55 3.7,-9.03 8.81,-9.03 5.11,0 8.81,3.48 8.81,9.03 0,5.55 -3.7,9.03 -8.81,9.03zm54.92 -42.34l0 18.28c-2.44,-2.81 -6.07,-4.51 -11.03,-4.51 -9.7,0 -17.69,8.51 -17.69,19.54 0,11.03 7.99,19.54 17.69,19.54 4.96,0 8.59,-1.7 11.03,-4.52l0 3.48 11.1 0 0 -51.81 -11.1 0zm-8.81 42.34c-5.11,0 -8.81,-3.48 -8.81,-9.03 0,-5.55 3.7,-9.03 8.81,-9.03 5.11,0 8.81,3.48 8.81,9.03 0,5.55 -3.7,9.03 -8.81,9.03zm53.15 10.51c9.47,0 17.76,-4.66 22.2,-11.99l-10.21 -5.92c-2.22,4 -6.74,6.36 -11.99,6.36 -9.18,0 -15.1,-6.14 -15.1,-15.39 0,-9.25 5.92,-15.4 15.1,-15.4 5.26,0 9.7,2.37 11.99,6.37l10.21 -5.92c-4.52,-7.33 -12.8,-11.99 -22.2,-11.99 -15.62,0 -26.94,11.7 -26.94,26.94 0,15.25 11.33,26.94 26.94,26.94zm54.63 -38.04l0 3.48c-2.44,-2.81 -6.07,-4.51 -11.03,-4.51 -9.7,0 -17.69,8.51 -17.69,19.54 0,11.03 8,19.54 17.69,19.54 4.96,0 8.58,-1.7 11.03,-4.52l0 3.48 11.1 0 0 -37.01 -11.1 0zm-8.81 27.54c-5.11,0 -8.81,-3.48 -8.81,-9.03 0,-5.55 3.7,-9.03 8.81,-9.03 5.11,0 8.81,3.48 8.81,9.03 0,5.55 -3.7,9.03 -8.81,9.03zm38.19 -16.73c0,-1.33 1.19,-2.07 3.11,-2.07 2.44,0 3.93,1.33 4.96,3.26l9.48 -5.11c-3.11,-5.26 -8.44,-7.92 -14.44,-7.92 -7.7,0 -14.51,4.07 -14.51,12.14 0,12.8 18.21,10.66 18.21,14.73 0,1.48 -1.33,2.3 -4,2.3 -3.26,0 -5.33,-1.56 -6.29,-4.37l-9.62 5.48c2.89,6 8.51,8.81 15.91,8.81 8,0 15.4,-3.63 15.4,-12.14 0,-13.69 -18.21,-10.88 -18.21,-15.1zm44.33 -0.15l0 -10.66 -7.62 0 0 -10.36 -11.1 3.33 0 7.03 -5.92 0 0 10.66 5.92 0 0 13.1c0,10.36 4.22,14.73 18.72,13.25l0 -10.07c-4.88,0.3 -7.62,0 -7.62,-3.18l0 -13.1 7.62 0z"/>
   <path class="fil1" d="M258.64 158.1c2.67,-1.44 4.46,-4.21 4.46,-7.57 0,-5 -4.06,-9.11 -9.11,-9.11l-13.81 0 0 34.65 14.95 0c5.24,0 9.45,-4.21 9.45,-9.46 0,-3.96 -2.48,-7.17 -5.94,-8.51zm-4.65 -14.2c3.57,0 6.48,2.97 6.48,6.63 0,3.67 -2.92,6.63 -6.48,6.63l-11.19 0 0 -13.26 11.19 0zm1.14 29.7l-12.33 0 0 -13.96 12.33 0c3.76,0 6.83,3.12 6.83,6.98 0,3.86 -3.07,6.98 -6.83,6.98zm33.7 -22.27l0 13.07c0,6.68 -3.81,9.85 -8.66,9.85 -4.65,0 -7.28,-2.97 -7.28,-7.52l0 -15.39 -2.52 0 0 15.39c0,5.99 3.71,9.9 9.6,9.9 3.81,0 6.98,-1.58 8.86,-5.25l0 4.7 2.48 0 0 -24.75 -2.48 0zm11.78 6.48c0,-2.97 2.72,-4.65 5.94,-4.65 2.72,0 5.3,1.19 6.33,3.76l2.08 -1.19c-1.33,-3.02 -4.41,-4.95 -8.41,-4.95 -5.05,0 -8.41,3.12 -8.41,7.03 0,8.91 15,5.05 15,11.78 0,3.12 -2.92,4.65 -6.39,4.65 -3.71,0 -6.38,-1.69 -7.28,-4.36l-2.13 1.24c1.19,3.17 4.45,5.49 9.4,5.49 5.3,0 8.86,-2.97 8.86,-7.03 0,-9.06 -15,-5.15 -15,-11.78zm21.98 -12.48c1.09,0 1.98,-0.89 1.98,-1.98 0,-1.04 -0.89,-1.93 -1.98,-1.93 -1.09,0 -1.98,0.89 -1.98,1.93 0,1.09 0.89,1.98 1.98,1.98zm-1.24 30.74l2.48 0 0 -24.75 -2.48 0 0 24.75zm21.43 -25.3c-3.81,0 -6.98,1.59 -8.86,5.25l0 -4.7 -2.48 0 0 24.75 2.48 0 0 -13.07c0,-6.69 3.81,-9.85 8.66,-9.85 4.65,0 7.28,2.97 7.28,7.52l0 15.39 2.52 0 0 -15.39c0,-5.99 -3.71,-9.9 -9.6,-9.9zm27.72 0c-7.57,0 -12.82,5.65 -12.82,12.92 0,7.47 5.4,12.92 13.02,12.92 4.9,0 8.76,-2.23 10.79,-5.59l-2.18 -1.28c-1.43,2.62 -4.5,4.5 -8.56,4.5 -5.64,0 -9.9,-3.67 -10.49,-9.26l22.42 0c0,-0.4 0.05,-0.8 0.05,-1.19 0,-6.78 -4.7,-13.02 -12.23,-13.02zm0 2.38c4.85,0 9.11,3.37 9.65,9.41l-19.9 0c0.5,-5.5 4.6,-9.41 10.24,-9.41zm18.71 4.65c0,-2.97 2.72,-4.65 5.94,-4.65 2.72,0 5.3,1.19 6.33,3.76l2.08 -1.19c-1.34,-3.02 -4.41,-4.95 -8.42,-4.95 -5.05,0 -8.41,3.12 -8.41,7.03 0,8.91 15,5.05 15,11.78 0,3.12 -2.92,4.65 -6.38,4.65 -3.71,0 -6.39,-1.69 -7.28,-4.36l-2.13 1.24c1.19,3.17 4.45,5.49 9.41,5.49 5.3,0 8.86,-2.97 8.86,-7.03 0,-9.06 -15,-5.15 -15,-11.78zm21.19 0c0,-2.97 2.72,-4.65 5.94,-4.65 2.72,0 5.3,1.19 6.33,3.76l2.08 -1.19c-1.33,-3.02 -4.4,-4.95 -8.41,-4.95 -5.05,0 -8.41,3.12 -8.41,7.03 0,8.91 15,5.05 15,11.78 0,3.12 -2.92,4.65 -6.39,4.65 -3.71,0 -6.38,-1.69 -7.28,-4.36l-2.13 1.24c1.19,3.17 4.45,5.49 9.4,5.49 5.3,0 8.86,-2.97 8.86,-7.03 0,-9.06 -15,-5.15 -15,-11.78zm45.29 18.81c6.88,0 11.39,-3.76 11.39,-9.5 0,-5.99 -5.35,-7.92 -11.48,-9.95 -4.95,-1.63 -8.46,-2.92 -8.46,-7.08 0,-3.86 3.02,-6.68 7.82,-6.68 4.95,0 7.63,2.87 8.91,5.99l2.22 -1.24c-1.68,-4.01 -5.44,-7.28 -11.14,-7.28 -5.89,0 -10.49,3.61 -10.49,9.31 0,6.04 5.2,7.67 10.99,9.55 5.3,1.68 8.96,3.27 8.96,7.43 0,3.96 -2.92,6.93 -8.71,6.93 -5.69,0 -9.2,-2.82 -10.39,-6.98l-2.28 1.34c1.58,4.9 6.19,8.17 12.67,8.17zm29.35 0c7.18,0 12.97,-5.59 12.97,-12.92 0,-7.33 -5.79,-12.92 -12.97,-12.92 -7.22,0 -13.02,5.59 -13.02,12.92 0,7.32 5.79,12.92 13.02,12.92zm0 -2.37c-5.89,0 -10.49,-4.65 -10.49,-10.54 0,-5.89 4.6,-10.54 10.49,-10.54 5.89,0 10.44,4.65 10.44,10.54 0,5.89 -4.55,10.54 -10.44,10.54zm18.91 1.83l2.48 0 0 -36.13 -2.48 0 0 36.13zm27.92 -24.75l0 13.07c0,6.68 -3.81,9.85 -8.66,9.85 -4.65,0 -7.28,-2.97 -7.28,-7.52l0 -15.39 -2.52 0 0 15.39c0,5.99 3.71,9.9 9.6,9.9 3.81,0 6.98,-1.58 8.86,-5.25l0 4.7 2.47 0 0 -24.75 -2.47 0zm22.77 2.43l0 -2.43 -7.37 0 0 -6.93 -2.53 0.74 0 6.19 -5.44 0 0 2.43 5.44 0 0 16.09c0,5.64 3.42,7.22 9.9,6.24l0 -2.23c-5.05,0.44 -7.37,0.35 -7.37,-4.01l0 -16.09 7.37 0zm7.18 -8.42c1.09,0 1.98,-0.89 1.98,-1.98 0,-1.04 -0.89,-1.93 -1.98,-1.93 -1.09,0 -1.98,0.89 -1.98,1.93 0,1.09 0.89,1.98 1.98,1.98zm-1.24 30.74l2.47 0 0 -24.75 -2.47 0 0 24.75zm21.43 0.54c7.18,0 12.97,-5.59 12.97,-12.92 0,-7.33 -5.79,-12.92 -12.97,-12.92 -7.22,0 -13.02,5.59 -13.02,12.92 0,7.32 5.79,12.92 13.02,12.92zm0 -2.37c-5.89,0 -10.49,-4.65 -10.49,-10.54 0,-5.89 4.6,-10.54 10.49,-10.54 5.89,0 10.44,4.65 10.44,10.54 0,5.89 -4.56,10.54 -10.44,10.54zm30.24 -23.46c-3.81,0 -6.98,1.59 -8.86,5.25l0 -4.7 -2.47 0 0 24.75 2.47 0 0 -13.07c0,-6.69 3.81,-9.85 8.67,-9.85 4.65,0 7.28,2.97 7.28,7.52l0 15.39 2.52 0 0 -15.39c0,-5.99 -3.71,-9.9 -9.6,-9.9zm18.26 7.03c0,-2.97 2.72,-4.65 5.94,-4.65 2.72,0 5.3,1.19 6.33,3.76l2.08 -1.19c-1.33,-3.02 -4.41,-4.95 -8.41,-4.95 -5.05,0 -8.42,3.12 -8.42,7.03 0,8.91 15,5.05 15,11.78 0,3.12 -2.92,4.65 -6.39,4.65 -3.71,0 -6.39,-1.69 -7.28,-4.36l-2.13 1.24c1.19,3.17 4.46,5.49 9.41,5.49 5.3,0 8.86,-2.97 8.86,-7.03 0,-9.06 -15,-5.15 -15,-11.78z"/>
  </g>
 </g>
</svg>
